# xmcd
#
# Track frame offsets:
#	183
#	12058
#	24995
#	39158
#	48433
#	61070
#	70120
#	82408
#	100083
#	112958
#	127708
#	136658
#	147595
#	159533
#	171083
#	183095
#	193033
#	203858
#	220770
#	232545
#	245545
#	258983
#	276920
#	293958
#	304708
#
# Disc length: 4368 seconds
#
# Revision: 0
# Processed by: cddbd v1.5.2PL0 Copyright (c) Steve Scherf et al.
# Submitted via: EasyCDDAExtractor 16.0.9.1
#
DISCID=50110e19
DTITLE=Varios - N-020 The World Of Soul (Hold on, I'm Comin')
DYEAR=1992
DGENRE=Soul
TTITLE0=Hold on, I'm Comin'
TTITLE1=When a man loves a woman
TTITLE2=I got you (I feel good)
TTITLE3=Every Beat of my heart
TTITLE4=Let it be me
TTITLE5=Saturday night at the movies
TTITLE6=Sweeter than sweetness
TTITLE7=A rainy night in Georgia
TTITLE8=All I Could do was cry
TTITLE9=Love is Blue! Cam som a Rainbow
TTITLE10=Yum Yum
TTITLE11=Just be true
TTITLE12=I keep Forgettin'
TTITLE13=Oh! No, not my baby
TTITLE14=We need understanding
TTITLE15=Nobody but me
TTITLE16=Recovery
TTITLE17=Please, please, please
TTITLE18=Hi heel snakers
TTITLE19=On Brodway
TTITLE20=Always together
TTITLE21=Give me your love
TTITLE22=Be young, be foolish, be happy
TTITLE23=Thank you pretty baby
TTITLE24=It's too funky in here
EXTD=
EXTT0=
EXTT1=
EXTT2=
EXTT3=
EXTT4=
EXTT5=
EXTT6=
EXTT7=
EXTT8=
EXTT9=
EXTT10=
EXTT11=
EXTT12=
EXTT13=
EXTT14=
EXTT15=
EXTT16=
EXTT17=
EXTT18=
EXTT19=
EXTT20=
EXTT21=
EXTT22=
EXTT23=
EXTT24=
PLAYORDER=
